<mxfile host="app.diagrams.net" modified="2024-04-24T13:45:19.729Z" agent="Mozilla/5.0 (Windows NT 10.0; Win64; x64) AppleWebKit/537.36 (KHTML, like Gecko) Chrome/124.0.0.0 Safari/537.36" version="24.2.5" etag="p-jVLIXQFjk2IxDDElLS" type="github">
  <diagram name="PaginÄƒ-1" id="7NNnSgU0XGvfK1l6Rxgr">
    <mxGraphModel>
      <root>
        <mxCell id="0" />
        <mxCell id="1" parent="0" />
      </root>
    </mxGraphModel>
  </diagram>
</mxfile>
